<svg version="1.1" id="Layer_1" xmlns="http://www.w3.org/2000/svg" x="0" y="0" viewBox="0 0 120 40" xml:space="preserve"><style>.st1{fill:#fff}</style><path d="M110.4 0H7.5c-.7 0-1.3.1-2 .2-.6.1-1.3.3-1.9.6C3 1.1 2.5 1.5 2 2S1.1 3 .8 3.6C.5 4.2.3 4.9.2 5.5c-.1.7-.2 1.4-.2 2v24.9c0 .7.1 1.3.2 2s.3 1.3.6 1.9c.3.7.7 1.2 1.2 1.7s1 .9 1.6 1.2c.6.3 1.2.5 1.9.6.7.1 1.3.2 2 .2h104.9c.7 0 1.3-.1 2-.2s1.3-.3 1.9-.6c.6-.3 1.1-.7 1.6-1.2s.9-1 1.2-1.6c.3-.6.5-1.2.6-1.9.1-.7.2-1.3.2-2v-.9V9.5 8.4v-.9c0-.7-.1-1.3-.2-2s-.3-1.3-.6-1.9c-.6-1.2-1.6-2.2-2.8-2.8-.6-.3-1.2-.5-1.9-.6-.7-.1-1.3-.2-2-.2h-2z" fill="#a6a6a6"></path><path d="M8.4 39.1h-.9c-.6 0-1.3-.1-1.9-.2-.6-.1-1.1-.3-1.7-.5-.5-.3-1-.6-1.4-1-.4-.4-.8-.9-1-1.4-.3-.5-.4-1.1-.5-1.7-.1-.6-.2-1.2-.2-1.9v-24-.9c0-.6.1-1.3.2-1.9.1-.5.3-1.1.6-1.6s.6-1 1-1.4c.4-.4.9-.7 1.4-1 .5-.3 1.1-.4 1.7-.5C6.3 1 6.9.9 7.6.9h104.9c.6 0 1.2.1 1.9.2.6.1 1.1.3 1.7.5 1 .5 1.9 1.4 2.4 2.4.3.5.4 1.1.5 1.6.1.6.2 1.3.2 1.9v24.9c0 .6-.1 1.2-.2 1.9-.1.6-.3 1.1-.5 1.7-.3.5-.6 1-1 1.4-.4.4-.9.8-1.4 1-.5.3-1.1.5-1.7.5-.6.1-1.2.2-1.9.2H8.4z"></path><path class="st1" d="M23.8 20.3c0-1.7.9-3.3 2.4-4.2-.9-1.3-2.4-2.1-4-2.2-1.7-.2-3.3 1-4.2 1-.9 0-2.2-1-3.6-1-1.9.1-3.6 1.1-4.5 2.7-1.9 3.3-.5 8.3 1.4 11 .9 1.3 2 2.8 3.4 2.8 1.4-.1 1.9-.9 3.6-.9 1.7 0 2.1.9 3.6.9s2.4-1.3 3.3-2.7c.7-.9 1.2-2 1.5-3.1-1.8-.6-2.9-2.4-2.9-4.3zM21 12.2c.8-1 1.2-2.2 1.1-3.5-1.2.1-2.4.7-3.2 1.7-.8.9-1.2 2.1-1.1 3.4 1.3 0 2.4-.6 3.2-1.6zM33.6 24.5c0-.3.3-.5.6-.5s.5.3.5.6-.3.5-.6.5-.5-.3-.5-.6zm.1 7.1v-6h.9v6h-.9zm2.4-4.5h.9v.7c.2-.5.8-.8 1.3-.8.8-.1 1.5.5 1.6 1.4V31.6H39v-2.7c0-.7-.3-1.1-1-1.1-.6 0-1.1.4-1.1 1V31.6H36l.1-4.5zm5 2.2c0-1.4.7-2.3 1.9-2.3.6 0 1.1.3 1.4.8h.1v-2.5h.9v6.3h-.9v-.7h-.1c-.3.5-.8.8-1.4.8-1.2-.1-1.9-1-1.9-2.4zm.9 0c0 1 .5 1.5 1.2 1.5s1.2-.6 1.2-1.5-.5-1.5-1.2-1.5-1.2.6-1.2 1.5zm4.6-3.6c0-.3.2-.6.5-.6s.6.2.6.5-.2.6-.5.6c-.3.1-.5-.1-.6-.5 0 .1 0 0 0 0zm.2 1.4h.9v4.5h-.9v-4.5zm2.3 0h.9v.7c.2-.5.7-.8 1.2-.8h.4v.9c-.2 0-.3-.1-.5-.1-.6-.1-1.1.4-1.1 1V31.6h-.9v-4.5zm3.5-1.4c0-.3.2-.6.5-.6s.6.2.6.5-.2.6-.5.6c-.4.1-.6-.1-.6-.5 0 .1 0 0 0 0zm.1 1.4h.9v4.5h-.9v-4.5zm2.3 0h.9v.7h.1c.2-.5.8-.8 1.3-.8.8-.1 1.5.5 1.6 1.4V31.6H58v-2.7c0-.7-.3-1.1-1-1.1-.6 0-1.1.4-1.1 1V31.6H55v-4.5zM39 17.1h-3.6l-.9 2.6H33l3.4-9.5H38l3.4 9.5h-1.6l-.8-2.6zm-3.3-1.2h2.9l-1.4-4.2-1.5 4.2zm13.1.3c0 2.2-1.2 3.5-2.9 3.5-.9 0-1.7-.4-2.2-1.2V22h-1.4v-9.2h1.4V14c.5-.8 1.3-1.3 2.2-1.2 1.8-.1 2.9 1.3 2.9 3.4zm-1.4 0c0-1.4-.7-2.3-1.8-2.3s-1.8.9-1.8 2.3.7 2.3 1.8 2.3c1 .1 1.8-.8 1.8-2.3zm9 0c0 2.2-1.2 3.5-2.9 3.5-.9 0-1.7-.4-2.2-1.2V22h-1.4v-9.2h1.4V14c.5-.8 1.3-1.3 2.2-1.2 1.8-.1 2.9 1.3 2.9 3.4zm-1.4 0c0-1.4-.7-2.3-1.8-2.3s-1.8.9-1.8 2.3.7 2.3 1.8 2.3c1.1.1 1.8-.8 1.8-2.3zm6.5.9c.1.9 1 1.6 2.3 1.6 1.2 0 2.1-.6 2.1-1.5 0-.7-.5-1.2-1.8-1.5l-1.2-.3c-1.7-.4-2.6-1.2-2.6-2.6 0-1.6 1.4-2.8 3.5-2.8 2 0 3.4 1.1 3.4 2.8h-1.4c-.1-.9-.9-1.5-2-1.5s-1.9.6-1.9 1.4c0 .7.5 1.1 1.7 1.4l1 .3c1.9.5 2.8 1.2 2.8 2.6 0 1.8-1.4 2.9-3.7 2.9-2.1 0-3.5-1.1-3.6-2.8h1.4zm8.9-6v1.6h1.3v1.1h-1.3v3.8c0 .6.3.9.8.9h.5v1.1c-.3 0-.5.1-.8.1-1.4 0-1.9-.5-1.9-1.9v-4h-1v-1.1h1v-1.6h1.4zm2.1 5.1c0-2.2 1.3-3.5 3.3-3.5 2 0 3.3 1.4 3.3 3.5 0 2.2-1.3 3.5-3.3 3.5-2.1.1-3.3-1.3-3.3-3.5zm5.1 0c0-1.5-.7-2.4-1.8-2.4s-1.8.9-1.8 2.4.7 2.4 1.8 2.4 1.8-.9 1.8-2.4zm2.6-3.4h1.4V14c.2-.8.9-1.3 1.7-1.3.2 0 .3 0 .5.1v1.3c-.3-.1-.5-.1-.7-.1-.8 0-1.5.6-1.5 1.4v4.3h-1.4v-6.9zm10.1 4.9c-.2 1.3-1.4 2.1-3 2.1-2 0-3.3-1.4-3.3-3.5 0-2.2 1.3-3.6 3.2-3.6 1.9 0 3.1 1.3 3.1 3.4v.5h-4.9v.1c-.1 1 .6 1.9 1.6 2h.2c.7.1 1.3-.3 1.6-1h1.5zm-4.8-2.1H89c.1-.9-.7-1.7-1.6-1.8h-.1c-1 0-1.8.8-1.8 1.8zm5.8-1.9l.8-3.5h1.4l-.9 3.5h-1.3zm2.1 2.5c0-2.1 1.2-3.5 2.9-3.5.9 0 1.7.4 2.2 1.2v-3.7h1.4v9.5h-1.4v-1.2c-.4.8-1.3 1.3-2.2 1.3-1.7 0-2.9-1.4-2.9-3.6zm1.5 0c0 1.4.7 2.3 1.8 2.3s1.8-.9 1.8-2.3-.7-2.3-1.8-2.3-1.8.9-1.8 2.3zm6.3 1.5c0-1.2.9-1.9 2.6-2l1.9-.1v-.5c0-.8-.5-1.2-1.4-1.2-.7-.1-1.3.3-1.5 1h-1.3c0-1.3 1.2-2.1 2.8-2.1 1.7 0 2.7.9 2.7 2.3v4.7h-1.4v-1.1c-.4.8-1.3 1.3-2.2 1.3-1.2.1-2.2-.7-2.3-1.9.1-.2.1-.3.1-.4zm4.5-.6v-.5l-1.7.1c-.8.1-1.3.4-1.3 1s.5 1 1.3 1c.8.1 1.6-.6 1.7-1.6zm2.8-4.3h1.4V14c.4-.8 1.3-1.3 2.2-1.3 1.5 0 2.4 1 2.4 2.6v4.4h-1.4v-4.2c0-1-.5-1.6-1.5-1.6-.9 0-1.6.7-1.6 1.6v4.2h-1.4l-.1-6.9z"></path></svg>