<svg xmlns="http://www.w3.org/2000/svg" viewBox="0 0 135 40"><path d="M-10-10h155v60H-10v-60z" fill="none"></path><path d="M5 0h125c2.8 0 5 2.2 5 5v30c0 2.8-2.2 5-5 5H5c-2.8 0-5-2.2-5-5V5c0-2.8 2.2-5 5-5z"></path><path d="M130 .8c2.3 0 4.2 1.9 4.2 4.2v30c0 2.3-1.9 4.2-4.2 4.2H5C2.7 39.2.8 37.3.8 35V5C.8 2.7 2.7.8 5 .8h125m0-.8H5C2.2 0 0 2.2 0 5v30c0 2.8 2.2 5 5 5h125c2.8 0 5-2.2 5-5V5c0-2.8-2.2-5-5-5z" fill="#a6a6a6"></path><path d="M64.7 12.8c-2.1 0-3.7 1.7-3.7 3.7s1.7 3.7 3.7 3.7c2.1 0 3.7-1.7 3.7-3.7s-1.6-3.7-3.6-3.7h-.1zm0 6c-1.2.1-2.3-.8-2.4-2.1s.8-2.3 2.1-2.4c1.2-.1 2.3.8 2.4 2.1v.2c.1 1.1-.9 2.1-2.1 2.2zm-8.1-6c-2.1 0-3.7 1.7-3.7 3.7s1.7 3.7 3.7 3.7c2.1 0 3.7-1.7 3.7-3.7s-1.6-3.7-3.6-3.7h-.1zm0 6c-1.2.1-2.3-.8-2.4-2.1s.8-2.3 2.1-2.4c1.2-.1 2.3.8 2.4 2.1v.2c0 1.1-.9 2.1-2.1 2.2zm-9.7-4.9v1.6h3.8c-.1.7-.4 1.5-.9 2-.8.8-1.8 1.2-2.9 1.1-2.3-.1-4.1-2.1-4-4.4.1-2.2 1.8-3.9 4-4 1.1 0 2.1.4 2.8 1.1l1.1-1.1c-1.1-1.1-2.5-1.6-4-1.6-3.2 0-5.8 2.6-5.8 5.8s2.6 5.8 5.8 5.8c1.5.1 3-.5 4-1.6.9-1 1.4-2.3 1.4-3.7 0-.3 0-.7-.1-1h-5.2zm39.6 1.3c-.5-1.4-1.7-2.3-3.2-2.4-1.9 0-3.5 1.6-3.5 3.5v.2c0 2 1.5 3.7 3.6 3.7h.1c1.2 0 2.4-.6 3.1-1.6l-1.3-.8c-.4.6-1.1 1-1.8 1-.8 0-1.5-.4-1.8-1.1l5-2.1-.2-.4zm-5.1 1.2c-.1-1.1.7-2.1 1.8-2.2h.1c.6 0 1.1.3 1.4.8l-3.3 1.4zm-4 3.6H79V9.1h-1.6V20zm-2.6-6.4c-.6-.6-1.3-.9-2.1-.8-2.1 0-3.7 1.7-3.7 3.7s1.7 3.7 3.7 3.7c.8 0 1.5-.3 2-.8h.1v.5c0 1.4-.8 2.2-2 2.2-.8 0-1.6-.5-1.9-1.3l-1.4.6c.5 1.3 1.9 2.2 3.3 2.2 1.9 0 3.5-1.1 3.5-3.9V13h-1.6l.1.6zm-1.9 5.2c-1.2-.1-2.2-1.2-2.1-2.4.1-1.1 1-2 2.1-2.1 1.2.1 2.1 1 2 2.2v.1c.1 1.1-.8 2.1-2 2.2zm21.3-9.7h-3.9V20h1.6v-4.1h2.3c1.9.1 3.5-1.3 3.6-3.2.1-1.9-1.3-3.5-3.2-3.6h-.4zm0 5.3h-2.3v-3.8h2.3c1 0 1.9.8 1.9 1.9s-.9 1.8-1.9 1.9zm10.1-1.6c-1.2-.1-2.4.6-2.9 1.7l1.4.6c.3-.5.9-.9 1.5-.8.9-.1 1.6.5 1.7 1.4v.1c-.5-.3-1.1-.4-1.7-.4-1.6 0-3.2.9-3.2 2.5.1 1.4 1.2 2.5 2.6 2.4h.1c.9.1 1.7-.3 2.1-1.1v.8h1.6v-4.2c.1-1.9-1.4-3-3.2-3zm-.2 6c-.5 0-1.3-.3-1.3-.9 0-.8.9-1.2 1.7-1.2.5 0 1 .1 1.5.3-.1 1-.9 1.7-1.9 1.8zm9.2-5.8l-1.9 4.7h-.1l-1.9-4.7h-1.8l2.9 6.6-1.6 3.7h1.7L115 13h-1.7zm-14.7 7h1.6V9.1h-1.6V20z" fill="#fff"></path><linearGradient id="a" gradientUnits="userSpaceOnUse" x1="21.802" y1="-43.288" x2="5.022" y2="-26.508" gradientTransform="translate(0 52)"><stop offset="0" stop-color="#00a0ff"></stop><stop offset=".01" stop-color="#00a1ff"></stop><stop offset=".26" stop-color="#00beff"></stop><stop offset=".51" stop-color="#00d2ff"></stop><stop offset=".76" stop-color="#00dfff"></stop><stop offset="1" stop-color="#00e3ff"></stop></linearGradient><path d="M10.4 7.5c-.3.4-.5.9-.4 1.4V31c0 .5.1 1 .5 1.4l.1.1L23 20.1v-.3L10.4 7.5z" fill="url(#a)"></path><linearGradient id="b" gradientUnits="userSpaceOnUse" x1="33.83" y1="-32" x2="9.64" y2="-32" gradientTransform="translate(0 52)"><stop offset="0" stop-color="#ffe000"></stop><stop offset=".41" stop-color="#ffbd00"></stop><stop offset=".78" stop-color="orange"></stop><stop offset="1" stop-color="#ff9c00"></stop></linearGradient><path d="M27 24.3l-4.1-4.1v-.3l4.1-4.1h.1l4.9 2.8c1.4.8 1.4 2.1 0 2.9l-4.9 2.8H27z" fill="url(#b)"></path><linearGradient id="c" gradientUnits="userSpaceOnUse" x1="24.828" y1="-29.703" x2="2.067" y2="-6.952" gradientTransform="translate(0 52)"><stop offset="0" stop-color="#ff3a44"></stop><stop offset="1" stop-color="#c31162"></stop></linearGradient><path d="M27.1 24.2L22.9 20 10.4 32.5c.6.5 1.5.5 2.1.1l14.6-8.4" fill="url(#c)"></path><linearGradient id="d" gradientUnits="userSpaceOnUse" x1="7.298" y1="-51.818" x2="17.457" y2="-41.657" gradientTransform="translate(0 52)"><stop offset="0" stop-color="#32a071"></stop><stop offset=".07" stop-color="#2da771"></stop><stop offset=".48" stop-color="#15cf74"></stop><stop offset=".8" stop-color="#06e775"></stop><stop offset="1" stop-color="#00f076"></stop></linearGradient><path d="M27.1 15.8L12.5 7.5c-.6-.5-1.5-.5-2.1 0L22.9 20l4.2-4.2z" fill="url(#d)"></path><path d="M27 24.1l-14.5 8.2c-.6.4-1.4.4-2 0l-.1.1.1.1c.6.4 1.4.4 2 0l14.6-8.3-.1-.1z" opacity=".2"></path><path d="M10.4 32.3c-.3-.4-.5-.9-.5-1.4v.2c0 .5.1 1 .5 1.4v-.2zm21.6-11l-5 2.8.1.1 4.9-2.8c.6-.3.9-.8 1-1.4-.1.6-.5 1-1 1.3z" opacity=".12"></path><path d="M12.5 7.6L32 18.7c.5.3.9.7 1 1.3-.1-.6-.4-1.2-1-1.4L12.5 7.5c-1.4-.8-2.5-.1-2.5 1.4V9c0-1.5 1.1-2.2 2.5-1.4z" opacity=".25" fill="#fff"></path><path d="M41.8 28.8h-.7v-1.9h.7v1.9zm1.3 4.2v-6.1H45c.8 0 1.6.3 2.2.8 1.1 1.2 1.1 3.1 0 4.4-.6.6-1.4.9-2.2.8l-1.9.1zm.8-.8H45c.6 0 1.2-.2 1.7-.6.9-.9 1-2.3.2-3.2-.5-.5-1.1-.8-1.8-.8H44v4.6zm8.8-4.5h-2.8v1.9h2.5v.7h-2.5v1.9h2.8v.8h-3.5v-6.1h3.5v.8zm1.1 5.3v-6.1h1l3 4.7v-4.7h.8V33h-.8l-3.1-5v5h-.9zm7.3 0l2.3-6.1h.9l2.3 6.1h-.9l-.6-1.7h-2.6l-.6 1.7h-.8zm1.7-2.4h2l-1-2.8-1 2.8zm4.5 2.4v-6.1h.8v5.3h2.6v.8h-3.4zm4.3 0v-6.1h.8V33h-.8zm2.2 0v-6.1h1l3 4.7v-4.7h.8V33h-.8l-3.1-5v5h-.9z" fill="#fff" stroke="#fff" stroke-width=".2" stroke-miterlimit="10"></path></svg>